<svg width="400px" height="100px" xmlns="http://www.w3.org/2000/svg" viewBox="200 0 400 200" style="background: rgba(0, 0, 0, 0);" preserveAspectRatio="xMidYMid"><defs><filter id="editing-vr"><feFlood flood-color="#ff00f7" flood-opacity="0.7" result="c1"></feFlood><feFlood flood-color="#4900ff" flood-opacity="0.7" result="c3"></feFlood><feComposite operator="in" in="c1" in2="SourceAlpha" result="text-c1"></feComposite><feComposite operator="in" in="c3" in2="SourceAlpha" result="text-c3"></feComposite><feOffset in="text-c1" dx="5" dy="-5" result="text1"></feOffset><feOffset in="text-c3" dx="-5" dy="5" result="text3"></feOffset><feBlend in="SourceGraphic" in2="text1" mode="multiply" result="text4"></feBlend><feBlend in="text4" in2="text3" mode="multiply"></feBlend></filter></defs><g filter="url(#editing-vr)"><g transform="translate(32.799999952316284, 112)"><path d="M50.80-41.60L50.80-41.60L50.80-41.60Q50.80-37.40 47.30-34.80L47.30-34.80L47.30-34.80Q43.80-32.20 38.10-32.20L38.10-32.20L38.10-32.20Q35.70-32.20 34.30-32.90L34.30-32.90L34.30-32.90Q35.40-35.50 35.75-38.75L35.75-38.75L35.75-38.75Q36.10-42 36.10-42.90L36.10-42.90L36.10-42.90Q36.10-47.10 33.20-47.10L33.20-47.10L33.20-47.10Q31.20-47.10 28.95-44.60L28.95-44.60L28.95-44.60Q26.70-42.10 24.80-38.20L24.80-38.20L24.80-38.20Q20.60-29.20 20.60-20.10L20.60-20.10L20.60-20.10Q20.60-15.10 22.50-12.85L22.50-12.85L22.50-12.85Q24.40-10.60 28.60-10.60L28.60-10.60L28.60-10.60Q34.40-10.60 39-15.40L39-15.40L39-15.40Q40.30-16.90 41-18.60L41-18.60L41-18.60Q44.80-16.60 44.80-11.10L44.80-11.10L44.80-11.10Q44.80-5.50 38.60-1.80L38.60-1.80L38.60-1.80Q32.20 2 22 2L22 2L22 2Q1.70 2 1.70-19.50L1.70-19.50L1.70-19.50Q1.70-35.20 10.60-44.20L10.60-44.20L10.60-44.20Q19.20-53 35-53L35-53L35-53Q50.80-53 50.80-41.60ZM103.80-11.10L103.80-11.10L103.80-11.10Q103.80-6.70 108.30-5.40L108.30-5.40L108.30-5.40Q107.20-1.70 102.90 0.30L102.90 0.30L102.90 0.30Q99.30 2 95.35 2L95.35 2L95.35 2Q91.40 2 89.35 0.95L89.35 0.95L89.35 0.95Q87.30-0.10 86.20-1.80L86.20-1.80L86.20-1.80Q84.40-4.40 84.40-9.30L84.40-9.30L84.40-9.30Q84.40-12.20 86-20.20L86-20.20L87.40-27.80L87.40-27.80Q89.10-36.50 89.10-39.70L89.10-39.70L89.10-39.70Q89.10-45.30 86-45.30L86-45.30L86-45.30Q82.10-45.30 79.60-39.60L79.60-39.60L79.60-39.60Q78.60-37.40 77.90-34.10L77.90-34.10L71.10 0L51.00 2L65.10-70L85.20-72L84.40-68L84.40-68Q81.60-52.60 79.20-47.40L79.20-47.40L79.20-47.40Q84.80-53 95.10-53L95.10-53L95.10-53Q106-53 108-45.80L108-45.80L108-45.80Q108.70-43.50 108.70-41.50L108.70-41.50L108.70-41.50Q108.70-39.50 108.55-37.95L108.55-37.95L108.55-37.95Q108.40-36.40 107.90-33.60L107.90-33.60L106.60-26.40L104.30-15.10L104.30-15.10Q103.80-12.80 103.80-11.10ZM156.90-16.90L156.90-16.90L156.90-16.90Q159.40-15.20 159.40-11.45L159.40-11.45L159.40-11.45Q159.40-7.70 157.50-5.30L157.50-5.30L157.50-5.30Q155.60-2.90 152.50-1.30L152.50-1.30L152.50-1.30Q146.10 2 139.20 2L139.20 2L139.20 2Q132.30 2 128.25 0.50L128.25 0.50L128.25 0.50Q124.20-1 121.50-3.80L121.50-3.80L121.50-3.80Q116.20-9.10 116.20-18.80L116.20-18.80L116.20-18.80Q116.20-33.90 124.40-43.10L124.40-43.10L124.40-43.10Q133.20-53 148.50-53L148.50-53L148.50-53Q158.00-53 162.70-49L162.70-49L162.70-49Q166.20-46 166.20-41.10L166.20-41.10L166.20-41.10Q166.20-23.50 135.80-23.50L135.80-23.50L135.80-23.50Q135.40-20.90 135.40-18.70L135.40-18.70L135.40-18.70Q135.40-14.10 137.45-12.35L137.45-12.35L137.45-12.35Q139.50-10.60 143.30-10.60L143.30-10.60L143.30-10.60Q147.10-10.60 151.15-12.35L151.15-12.35L151.15-12.35Q155.20-14.10 156.90-16.90ZM136.50-27.80L136.50-27.80L136.50-27.80Q143.60-27.80 147.70-32.20L147.70-32.20L147.70-32.20Q151.80-36.40 151.80-43.10L151.80-43.10L151.80-43.10Q151.80-45.40 150.95-46.65L150.95-46.65L150.95-46.65Q150.10-47.90 148.40-47.90L148.40-47.90L148.40-47.90Q146.70-47.90 145.25-47.25L145.25-47.25L145.25-47.25Q143.80-46.60 142.30-44.40L142.30-44.40L142.30-44.40Q138.60-39.40 136.50-27.80ZM218.70-41.60L218.70-41.60L218.70-41.60Q218.70-37.40 215.20-34.80L215.20-34.80L215.20-34.80Q211.70-32.20 206.00-32.20L206.00-32.20L206.00-32.20Q203.60-32.20 202.20-32.90L202.20-32.90L202.20-32.90Q203.30-35.50 203.65-38.75L203.65-38.75L203.65-38.75Q204.00-42 204.00-42.90L204.00-42.90L204.00-42.90Q204.00-47.10 201.10-47.10L201.10-47.10L201.10-47.10Q199.10-47.10 196.85-44.60L196.85-44.60L196.85-44.60Q194.60-42.10 192.70-38.20L192.70-38.20L192.70-38.20Q188.50-29.20 188.50-20.10L188.50-20.10L188.50-20.10Q188.50-15.10 190.40-12.85L190.40-12.85L190.40-12.85Q192.30-10.60 196.50-10.60L196.50-10.60L196.50-10.60Q202.30-10.60 206.90-15.40L206.90-15.40L206.90-15.40Q208.20-16.90 208.90-18.60L208.90-18.60L208.90-18.60Q212.70-16.60 212.70-11.10L212.70-11.10L212.70-11.10Q212.70-5.50 206.50-1.80L206.50-1.80L206.50-1.80Q200.10 2 189.90 2L189.90 2L189.90 2Q169.60 2 169.60-19.50L169.60-19.50L169.60-19.50Q169.60-35.20 178.50-44.20L178.50-44.20L178.50-44.20Q187.10-53 202.90-53L202.90-53L202.90-53Q218.70-53 218.70-41.60ZM247.20-47.40L247.20-47.40L247.20-47.40Q252.60-53 264.00-53L264.00-53L264.00-53Q270.30-53 273.75-49.65L273.75-49.65L273.75-49.65Q277.20-46.30 277.20-40.15L277.20-40.15L277.20-40.15Q277.20-34 273.75-29.65L273.75-29.65L273.75-29.65Q270.30-25.30 263.90-23.50L263.90-23.50L263.90-23.50Q264.40-21.50 265.10-19.40L265.10-19.40L266.50-15.40L266.50-15.40Q268.40-10.30 269.90-8.50L269.90-8.50L269.90-8.50Q271.40-6.70 273.40-6.10L273.40-6.10L273.40-6.10Q272.30-2 268.30 0.20L268.30 0.20L268.30 0.20Q265.10 2 260.70 2L260.70 2L260.70 2Q247.80 2 246.10-17.90L246.10-17.90L246.10-17.90Q245.80-20.70 245.80-23.50L245.80-23.50L245.80-23.50Q250.80-24.90 254.30-29.60L254.30-29.60L254.30-29.60Q257.80-34.30 257.80-39.80L257.80-39.80L257.80-39.80Q257.80-45.30 253.90-45.30L253.90-45.30L253.90-45.30Q251.10-45.30 248.90-42.20L248.90-42.20L248.90-42.20Q246.70-39.10 245.70-33.80L245.70-33.80L239.10 0L218.90 2L232.90-70L253.00-72L250.70-60.10L250.70-60.10Q249.20-51.70 247.20-47.40ZM311.70-35.10L311.70-35.10L311.70-35.10Q313.10-38.80 313.10-42L313.10-42L313.10-42Q313.10-47.90 308.30-47.90L308.30-47.90L308.30-47.90Q305.80-47.90 303.75-45.65L303.75-45.65L303.75-45.65Q301.70-43.40 301.70-40.60L301.70-40.60L301.70-40.60Q301.70-38.60 303.30-37L303.30-37L303.30-37Q305.60-34.80 311.50-31.20L311.50-31.20L311.50-31.20Q317.40-27.60 319.65-24.65L319.65-24.65L319.65-24.65Q321.90-21.70 321.90-17.65L321.90-17.65L321.90-17.65Q321.90-13.60 319.95-9.90L319.95-9.90L319.95-9.90Q318-6.20 314.50-3.60L314.50-3.60L314.50-3.60Q307 2 295 2L295 2L295 2Q288.50 2 283.50-1.40L283.50-1.40L283.50-1.40Q278.50-4.70 278.50-8.60L278.50-8.60L278.50-8.60Q278.50-12.50 281.35-14.80L281.35-14.80L281.35-14.80Q284.20-17.10 288.40-17.10L288.40-17.10L288.40-17.10Q292.60-17.10 295.20-15.50L295.20-15.50L295.20-15.50Q293.90-12.20 293.90-10L293.90-10L293.90-10Q293.90-3.40 299.50-3.40L299.50-3.40L299.50-3.40Q301.90-3.40 303.50-4.90L303.50-4.90L303.50-4.90Q305.10-6.40 305.10-9L305.10-9L305.10-9Q305.10-14.10 296.50-19.50L296.50-19.50L296.50-19.50Q289.50-24.10 287.90-25.90L287.90-25.90L287.90-25.90Q285.20-29.10 285.20-33.10L285.20-33.10L285.20-33.10Q285.20-37.10 287.10-40.90L287.10-40.90L287.10-40.90Q289-44.70 292.50-47.40L292.50-47.40L292.50-47.40Q299.80-53 312.50-53L312.50-53L312.50-53Q319-53 322.85-50.40L322.85-50.40L322.85-50.40Q326.70-47.80 326.70-43.40L326.70-43.40L326.70-43.40Q326.70-39 324.05-36.50L324.05-36.50L324.05-36.50Q321.40-34 316.60-34L316.60-34L316.60-34Q313.30-34 311.70-35.10ZM370.90-16.90L370.90-16.90L370.90-16.90Q373.40-15.20 373.40-11.45L373.40-11.45L373.40-11.45Q373.40-7.70 371.50-5.30L371.50-5.30L371.50-5.30Q369.60-2.90 366.50-1.30L366.50-1.30L366.50-1.30Q360.10 2 353.20 2L353.20 2L353.20 2Q346.30 2 342.25 0.50L342.25 0.50L342.25 0.50Q338.20-1 335.50-3.80L335.50-3.80L335.50-3.80Q330.20-9.10 330.20-18.80L330.20-18.80L330.20-18.80Q330.20-33.90 338.40-43.10L338.40-43.10L338.40-43.10Q347.20-53 362.50-53L362.50-53L362.50-53Q372.00-53 376.70-49L376.70-49L376.70-49Q380.20-46 380.20-41.10L380.20-41.10L380.20-41.10Q380.20-23.50 349.80-23.50L349.80-23.50L349.80-23.50Q349.40-20.90 349.40-18.70L349.40-18.70L349.40-18.70Q349.40-14.10 351.45-12.35L351.45-12.35L351.45-12.35Q353.50-10.60 357.30-10.60L357.30-10.60L357.30-10.60Q361.10-10.60 365.15-12.35L365.15-12.35L365.15-12.35Q369.20-14.10 370.90-16.90ZM350.50-27.80L350.50-27.80L350.50-27.80Q357.60-27.80 361.70-32.20L361.70-32.20L361.70-32.20Q365.80-36.40 365.80-43.10L365.80-43.10L365.80-43.10Q365.80-45.40 364.95-46.65L364.95-46.65L364.95-46.65Q364.10-47.90 362.40-47.90L362.40-47.90L362.40-47.90Q360.70-47.90 359.25-47.25L359.25-47.25L359.25-47.25Q357.80-46.60 356.30-44.40L356.30-44.40L356.30-44.40Q352.60-39.40 350.50-27.80ZM432.70-41.60L432.70-41.60L432.70-41.60Q432.70-37.40 429.20-34.80L429.20-34.80L429.20-34.80Q425.70-32.20 420.00-32.20L420.00-32.20L420.00-32.20Q417.60-32.20 416.20-32.90L416.20-32.90L416.20-32.90Q417.30-35.50 417.65-38.75L417.65-38.75L417.65-38.75Q418.00-42 418.00-42.90L418.00-42.90L418.00-42.90Q418.00-47.10 415.10-47.10L415.10-47.10L415.10-47.10Q413.10-47.10 410.85-44.60L410.85-44.60L410.85-44.60Q408.60-42.10 406.70-38.20L406.70-38.20L406.70-38.20Q402.50-29.20 402.50-20.10L402.50-20.10L402.50-20.10Q402.50-15.10 404.40-12.85L404.40-12.85L404.40-12.85Q406.30-10.60 410.50-10.60L410.50-10.60L410.50-10.60Q416.30-10.60 420.90-15.40L420.90-15.40L420.90-15.40Q422.20-16.90 422.90-18.60L422.90-18.60L422.90-18.60Q426.70-16.60 426.70-11.10L426.70-11.10L426.70-11.10Q426.70-5.50 420.50-1.80L420.50-1.80L420.50-1.80Q414.10 2 403.90 2L403.90 2L403.90 2Q383.60 2 383.60-19.50L383.60-19.50L383.60-19.50Q383.60-35.20 392.50-44.20L392.50-44.20L392.50-44.20Q401.10-53 416.90-53L416.90-53L416.90-53Q432.70-53 432.70-41.60Z" fill="#292929"></path></g></g><style>text {
  font-size: 64px;
  font-family: Arial Black;
  dominant-baseline: auto;
  text-anchor: start;
}</style></svg>
